<?xml version="1.0" encoding="UTF-8" standalone="no"?>
<svg
   xmlns:dc="http://purl.org/dc/elements/1.1/"
   xmlns:cc="http://creativecommons.org/ns#"
   xmlns:rdf="http://www.w3.org/1999/02/22-rdf-syntax-ns#"
   xmlns:svg="http://www.w3.org/2000/svg"
   xmlns="http://www.w3.org/2000/svg"
   xmlns:sodipodi="http://sodipodi.sourceforge.net/DTD/sodipodi-0.dtd"
   xmlns:inkscape="http://www.inkscape.org/namespaces/inkscape"
   width="210mm"
   height="297mm"
   viewBox="0 0 210 297"
   version="1.1"
   id="svg8"
   inkscape:version="1.0 (4035a4fb49, 2020-05-01)"
   sodipodi:docname="icon.svg">
  <defs
     id="defs2" />
  <sodipodi:namedview
     showborder="false"
     id="base"
     pagecolor="#000000"
     bordercolor="#666666"
     borderopacity="1.0"
     inkscape:pageopacity="0"
     inkscape:pageshadow="2"
     inkscape:zoom="0.35"
     inkscape:cx="306.29921"
     inkscape:cy="483.31387"
     inkscape:document-units="mm"
     inkscape:current-layer="layer1"
     inkscape:document-rotation="0"
     showgrid="false"
     inkscape:snap-global="false"
     inkscape:window-width="1366"
     inkscape:window-height="705"
     inkscape:window-x="-8"
     inkscape:window-y="-8"
     inkscape:window-maximized="1" />
  <metadata
     id="metadata5">
    <rdf:RDF>
      <cc:Work
         rdf:about="">
        <dc:format>image/svg+xml</dc:format>
        <dc:type
           rdf:resource="http://purl.org/dc/dcmitype/StillImage" />
        <dc:title></dc:title>
      </cc:Work>
    </rdf:RDF>
  </metadata>
  <g
     inkscape:label="Layer 1"
     inkscape:groupmode="layer"
     id="layer1">
    <g
       inkscape:export-ydpi="96"
       inkscape:export-xdpi="96"
       id="g879"
       style="stroke:none;fill:#0044aa">
      <ellipse
         ry="31.300156"
         rx="31.034025"
         cy="24.644001"
         cx="-134.9375"
         id="path833"
         style="fill:#0044aa;stroke:none;stroke-width:2.75177" />
      <path
         transform="scale(0.26458333)"
         d="M -614.28516 237.14258 C -661.77088 237.14258 -700 275.37171 -700 322.85742 L -700 541.42969 L -320 541.42969 L -320 322.85742 C -320 275.37171 -358.22914 237.14258 -405.71484 237.14258 L -614.28516 237.14258 z "
         style="fill:#0044aa;stroke:none;stroke-width:6.99999"
         id="rect851" />
    </g>
    <path
       inkscape:export-ydpi="96"
       inkscape:export-xdpi="96"
       id="rect859"
       style="fill:#00aa00;fill-opacity:1;stroke:none;stroke-width:1.41711"
       d="m -107.66715,36.098462 v 26.311596 h -26.90506 v 25.739949 h 26.90506 V 114.4616 h 26.320778 V 88.150007 h 26.90508 V 62.410058 h -26.90508 V 36.098462 Z" />
    <path
       id="path894"
       style="fill:#0066ff;fill-opacity:1;stroke:none;stroke-width:3.15178"
       d="M 54.483727,15.900658 A 82.490158,85.946367 3.3089928 0 0 -28.936954,75.522932 L -37.993058,75.059636 -25.676505,96.784189 -13.35995,118.50874 1.4752745,98.173906 16.311314,77.839117 7.6441195,77.395171 A 82.490158,85.946367 3.3089928 0 1 87.377755,27.540065 82.490158,85.946367 3.3089928 0 1 92.234894,27.972036 82.490158,85.946367 3.3089928 0 0 54.483727,15.900658 Z" />
    <path
       d="M 28.513737,134.67723 A 82.490158,85.946367 3.3089928 0 0 111.93445,75.054956 l 9.05611,0.463298 L 108.674,53.793701 96.357421,32.069147 81.522186,52.403985 66.686148,72.738773 l 8.667191,0.443948 a 82.490158,85.946367 3.3089928 0 1 -79.7336483,49.855099 82.490158,85.946367 3.3089928 0 1 -4.8571053,-0.43197 82.490158,85.946367 3.3089928 0 0 37.7511516,12.07138 z"
       style="fill:#0066ff;fill-opacity:1;stroke:none;stroke-width:3.15178"
       id="path910" />
    <g
       transform="matrix(0.94607566,0,0,0.94607566,15.276706,4.2987997)"
       id="g3386">
      <ellipse
         ry="43.845234"
         rx="44.223213"
         cy="57.452377"
         cx="-181.69641"
         id="path944"
         style="fill:#77c2d4;fill-opacity:1;stroke:none;stroke-width:1.85208"
         transform="scale(-1,1)" />
      <path
         sodipodi:nodetypes="sccccccscscscscsc"
         d="m 150.34368,11.615093 c 25.37381,-18.7031854 61.01376,-13.4383395 79.64127,11.764859 16.31108,22.06943 14.41823,52.712501 -4.4974,72.807552 l 37.44577,50.664976 -16.46453,12.1687 -37.44576,-50.66498 c -24.7612,12.18585 -54.61061,5.00305 -70.92186,-17.066256 -18.64421,-25.22635 -13.18956,-60.878331 12.18333,-79.631113 l 0.0591,-0.04372 z m 10.52039,14.270044 -0.0421,0.0311 c -17.45302,12.899268 -21.20512,37.422804 -8.38059,54.775051 12.8248,17.352264 37.36992,20.962082 54.82306,8.0627 17.45314,-12.899369 21.20512,-37.42316 8.38028,-54.775401 C 202.83194,16.64293 178.31767,13.02112 160.86405,25.88512 Z"
         style="fill:#004455;fill-opacity:1;stroke:none;stroke-width:1.61807"
         id="path927" />
    </g>
    <path
       d="M 297.15447,8.1342508 V 153.63971 H 409.39944 V 51.943789 L 362.4842,8.1342508 Z"
       style="fill:#005500;fill-opacity:1;stroke-width:1.29034"
       id="rect3347" />
    <rect
       style="fill:#ffffff;fill-opacity:1;stroke-width:0.845054"
       id="rect3353"
       width="67.360603"
       height="7.2342939"
       x="306.98642"
       y="31.519466"
       ry="3.617147" />
    <rect
       style="fill:#ffffff;fill-opacity:1;stroke-width:0.966649"
       id="rect3357"
       width="88.142067"
       height="7.2342939"
       x="307.703"
       y="80.551888"
       ry="3.617147" />
    <rect
       style="fill:#ffffff;fill-opacity:1;stroke-width:0.966649"
       id="rect3365"
       width="88.142067"
       height="7.2342939"
       x="307.70303"
       y="106.27383"
       ry="3.617147" />
    <path
       d="m 395.34997,64.502518 v 15.296456 h -46.73379 v 33.590706 h 46.73379 v 14.15045 l 25.44341,-15.75966 25.44338,-15.759315 -25.44338,-15.759318 z"
       style="fill:#ffcc00;fill-opacity:1;stroke-width:1.88256"
       id="rect3373" />
    <rect
       ry="3.617147"
       y="55.63377"
       x="307.70303"
       height="7.2342939"
       width="88.142067"
       id="rect3355"
       style="fill:#ffffff;fill-opacity:1;stroke-width:0.966649" />
    <rect
       ry="3.617147"
       y="133.60339"
       x="307.70303"
       height="7.2342939"
       width="88.142067"
       id="rect3367"
       style="fill:#ffffff;fill-opacity:1;stroke-width:0.966649" />
    <circle
       r="72.571434"
       cy="83.608337"
       cx="542.7738"
       id="path3417"
       style="fill:#0066ff;fill-opacity:1;stroke-width:1.81428" />
    <rect
       ry="13.41328"
       y="58.948879"
       x="528.24274"
       height="88.862976"
       width="29.062105"
       id="rect3419"
       style="fill:#d5e5ff;fill-opacity:1;stroke-width:2.13777" />
    <circle
       r="13.329446"
       cy="35.918537"
       cx="542.7738"
       id="path3421"
       style="fill:#d5e5ff;fill-opacity:1;stroke-width:1.81428" />
  </g>
</svg>
